<?xml version="1.0" standalone="no"?>
<!DOCTYPE svg PUBLIC "-//W3C//DTD SVG 20010904//EN"
 "http://www.w3.org/TR/2001/REC-SVG-20010904/DTD/svg10.dtd">
<svg version="1.0" xmlns="http://www.w3.org/2000/svg"
 width="50.000000pt" height="50.000000pt" viewBox="0 0 50.000000 50.000000"
 preserveAspectRatio="xMidYMid meet">

<g transform="translate(0.000000,50.000000) scale(0.100000,-0.100000)"
fill="#fff" stroke="none">  
<path d="M24 447 c-2 -7 -3 -80 -2 -162 l3 -150 83 -3 c62 -2 82 -6 82 -17 0
-8 -12 -15 -27 -17 -22 -2 -29 -9 -31 -30 l-3 -28 121 0 121 0 -3 28 c-2 21
-9 28 -30 30 -16 2 -28 9 -28 17 0 11 20 15 83 17 l82 3 0 160 0 160 -223 3
c-176 2 -224 0 -228 -11z m436 -122 l0 -115 -210 0 -210 0 0 115 0 115 210 0
210 0 0 -115z m0 -155 c0 -19 -7 -20 -210 -20 -203 0 -210 1 -210 20 0 19 7
20 210 20 203 0 210 -1 210 -20z m-170 -55 c0 -11 -11 -15 -40 -15 -29 0 -40
4 -40 15 0 11 11 15 40 15 29 0 40 -4 40 -15z m60 -45 c0 -6 -40 -10 -100 -10
-60 0 -100 4 -100 10 0 6 40 10 100 10 60 0 100 -4 100 -10z"/>
<path d="M241 327 c-34 -90 -35 -97 -22 -97 7 0 71 155 71 173 0 4 -4 7 -9 7
-4 0 -22 -37 -40 -83z"/>
<path d="M152 350 l-23 -30 23 -30 c21 -29 38 -39 38 -21 0 5 -7 14 -15 21 -8
7 -15 20 -15 30 0 10 7 23 15 30 8 7 15 16 15 21 0 18 -17 8 -38 -21z"/>
<path d="M310 371 c0 -5 7 -14 15 -21 8 -7 15 -20 15 -30 0 -10 -7 -23 -15
-30 -8 -7 -15 -16 -15 -21 0 -18 17 -8 38 21 l23 30 -23 30 c-21 29 -38 39
-38 21z"/>
<path d="M410 170 c0 -5 5 -10 10 -10 6 0 10 5 10 10 0 6 -4 10 -10 10 -5 0
-10 -4 -10 -10z"/>
</g>
</svg>
