<?xml version="1.0" standalone="no"?>
<!DOCTYPE svg PUBLIC "-//W3C//DTD SVG 20010904//EN"
 "http://www.w3.org/TR/2001/REC-SVG-20010904/DTD/svg10.dtd">
<svg version="1.0" xmlns="http://www.w3.org/2000/svg"
 width="64.000000pt" height="64.000000pt" viewBox="0 0 64.000000 64.000000"
 preserveAspectRatio="xMidYMid meet">

<g transform="translate(0.000000,64.000000) scale(0.100000,-0.100000)"
fill="#fff" stroke="none">
<path d="M32 578 c-8 -8 -12 -67 -12 -199 0 -157 3 -190 16 -203 12 -13 38
-16 121 -16 78 0 104 -3 101 -12 -3 -7 -15 -15 -29 -18 -19 -5 -24 -12 -24
-35 l0 -30 115 0 115 0 0 30 c0 23 -5 31 -22 33 -12 2 -27 10 -33 18 -11 12 3
14 98 14 87 0 114 3 126 16 13 13 16 46 16 203 0 132 -4 191 -12 199 -17 17
-559 17 -576 0z m556 -165 l3 -153 -271 0 -270 0 0 148 c0 82 3 152 7 155 4 4
124 6 267 5 l261 -3 3 -152z m0 -205 l-3 -23 -265 0 -265 0 -3 23 -3 22 271 0
271 0 -3 -22z m-239 -67 c6 -10 25 -24 42 -30 52 -18 23 -31 -71 -31 -94 0
-123 13 -71 31 17 6 36 20 42 30 13 24 45 24 58 0z"/>
<path d="M256 509 c-14 -17 -26 -36 -26 -43 0 -7 -9 -21 -19 -30 -43 -39 -33
-115 18 -140 28 -14 153 -15 184 -1 47 20 57 104 16 141 -10 9 -19 23 -19 30
0 7 -12 26 -26 43 -20 25 -34 31 -64 31 -30 0 -44 -6 -64 -31z m102 -5 c31
-21 28 -40 -8 -47 -40 -8 -90 2 -90 19 0 16 38 44 60 44 9 0 26 -7 38 -16z
m-64 -89 c-5 -12 -10 -13 -20 -4 -19 15 -18 19 6 19 13 0 18 -5 14 -15z m76 0
c-7 -8 -14 -15 -15 -15 -2 0 -5 7 -9 15 -4 10 1 15 16 15 17 0 18 -2 8 -15z
m-113 -17 c11 -13 25 -38 31 -55 11 -32 10 -33 -15 -33 -49 0 -76 45 -57 94 8
22 17 20 41 -6z m173 -26 c0 -34 -27 -62 -61 -62 -27 0 -28 1 -17 33 16 47 48
80 65 66 7 -6 13 -23 13 -37z m-100 -17 c0 -8 -4 -15 -10 -15 -5 0 -10 7 -10
15 0 8 5 15 10 15 6 0 10 -7 10 -15z"/>
<path d="M70 476 c0 -57 15 -75 26 -32 8 34 1 79 -13 84 -9 3 -13 -12 -13 -52z"/>
<path d="M532 453 c2 -44 7 -78 13 -78 6 0 11 34 13 78 2 65 0 77 -13 77 -13
0 -15 -12 -13 -77z"/>
<path d="M110 395 c0 -37 4 -65 10 -65 6 0 10 28 10 65 0 37 -4 65 -10 65 -6
0 -10 -28 -10 -65z"/>
<path d="M486 451 c-4 -5 -2 -12 3 -15 5 -4 12 -2 15 3 4 5 2 12 -3 15 -5 4
-12 2 -15 -3z"/>
<path d="M486 413 c-12 -13 -6 -53 9 -53 9 0 15 9 15 24 0 26 -12 40 -24 29z"/>
<path d="M536 351 c-4 -5 -2 -12 3 -15 5 -4 12 -2 15 3 4 5 2 12 -3 15 -5 4
-12 2 -15 -3z"/>
<path d="M110 310 c0 -5 5 -10 10 -10 6 0 10 5 10 10 0 6 -4 10 -10 10 -5 0
-10 -4 -10 -10z"/>
<path d="M470 210 c0 -5 5 -10 10 -10 6 0 10 5 10 10 0 6 -4 10 -10 10 -5 0
-10 -4 -10 -10z"/>
<path d="M510 210 c0 -5 5 -10 10 -10 6 0 10 5 10 10 0 6 -4 10 -10 10 -5 0
-10 -4 -10 -10z"/>
<path d="M550 210 c0 -5 5 -10 10 -10 6 0 10 5 10 10 0 6 -4 10 -10 10 -5 0
-10 -4 -10 -10z"/>
<path d="M460 130 c0 -5 5 -10 10 -10 6 0 10 5 10 10 0 6 -4 10 -10 10 -5 0
-10 -4 -10 -10z"/>
<path d="M150 120 c0 -5 5 -10 10 -10 6 0 10 5 10 10 0 6 -4 10 -10 10 -5 0
-10 -4 -10 -10z"/>
<path d="M504 116 c-3 -8 -4 -25 -2 -38 2 -19 9 -23 38 -23 29 0 36 4 38 23 2
13 -2 30 -8 38 -16 18 -59 18 -66 0z m52 -17 c10 -17 -13 -36 -27 -22 -12 12
-4 33 11 33 5 0 12 -5 16 -11z"/>
<path d="M70 105 c-6 -8 -10 -22 -8 -32 5 -25 61 -25 66 0 4 21 -14 47 -33 47
-7 0 -18 -7 -25 -15z m40 -19 c0 -11 -19 -15 -25 -6 -3 5 1 10 9 10 9 0 16 -2
16 -4z"/>
</g>
</svg>
