<?xml version="1.0" standalone="no"?>
<!DOCTYPE svg PUBLIC "-//W3C//DTD SVG 20010904//EN"
 "http://www.w3.org/TR/2001/REC-SVG-20010904/DTD/svg10.dtd">
<svg version="1.0" xmlns="http://www.w3.org/2000/svg"
 width="64.000000pt" height="64.000000pt" viewBox="0 0 64.000000 64.000000"
 preserveAspectRatio="xMidYMid meet">

<g transform="translate(0.000000,64.000000) scale(0.100000,-0.100000)"
fill="#fff" stroke="none">
<path d="M5 547 c-3 -7 -4 -100 -3 -207 l3 -195 128 -3 c119 -2 127 -4 127
-22 0 -13 -7 -20 -19 -20 -20 0 -71 -36 -71 -51 0 -5 64 -9 150 -9 86 0 150 4
150 9 0 15 -51 51 -71 51 -12 0 -19 7 -19 20 0 18 8 20 128 22 l127 3 0 205 0
205 -313 3 c-248 2 -314 0 -317 -11z m615 -167 c0 -153 -1 -160 -20 -160 -11
0 -20 -4 -20 -10 0 -5 9 -10 20 -10 13 0 20 -7 20 -20 0 -20 -7 -20 -300 -20
-293 0 -300 0 -300 20 0 19 7 20 190 20 120 0 190 4 190 10 0 6 -70 10 -190
10 l-190 0 0 160 0 160 300 0 300 0 0 -160z m-260 -260 c0 -17 -7 -20 -40 -20
-33 0 -40 3 -40 20 0 17 7 20 40 20 33 0 40 -3 40 -20z m65 -50 c4 -6 -33 -10
-105 -10 -72 0 -109 4 -105 10 8 13 202 13 210 0z"/>
<path d="M40 510 c0 -6 87 -10 240 -10 153 0 240 4 240 10 0 6 -87 10 -240 10
-153 0 -240 -4 -240 -10z"/>
<path d="M540 510 c0 -5 14 -10 30 -10 17 0 30 5 30 10 0 6 -13 10 -30 10 -16
0 -30 -4 -30 -10z"/>
<path d="M64 446 c-13 -33 4 -47 48 -44 38 3 43 6 43 28 0 22 -5 25 -43 28
-31 2 -44 -1 -48 -12z m76 -16 c0 -5 -13 -10 -30 -10 -16 0 -30 5 -30 10 0 6
14 10 30 10 17 0 30 -4 30 -10z"/>
<path d="M319 439 c-17 -17 -20 -29 -16 -60 3 -27 1 -39 -7 -39 -17 0 -71 -58
-62 -67 4 -4 15 2 24 13 27 33 52 43 79 31 16 -7 30 -7 46 0 27 12 52 2 79
-31 9 -11 20 -17 24 -13 9 9 -45 67 -62 67 -8 0 -10 12 -7 39 4 31 1 43 -16
60 -11 11 -30 21 -41 21 -11 0 -30 -10 -41 -21z m69 -11 c27 -27 6 -98 -28
-98 -22 0 -40 28 -40 62 0 28 17 48 40 48 9 0 21 -5 28 -12z"/>
<path d="M64 366 c-13 -33 4 -47 48 -44 38 3 43 6 43 28 0 22 -5 25 -43 28
-31 2 -44 -1 -48 -12z m76 -16 c0 -5 -13 -10 -30 -10 -16 0 -30 5 -30 10 0 6
14 10 30 10 17 0 30 -4 30 -10z"/>
<path d="M64 286 c-13 -33 4 -47 48 -44 38 3 43 6 43 28 0 22 -5 25 -43 28
-31 2 -44 -1 -48 -12z m76 -16 c0 -5 -13 -10 -30 -10 -16 0 -30 5 -30 10 0 6
14 10 30 10 17 0 30 -4 30 -10z"/>
<path d="M430 210 c0 -11 5 -20 10 -20 6 0 10 9 10 20 0 11 -4 20 -10 20 -5 0
-10 -9 -10 -20z"/>
<path d="M480 210 c0 -11 5 -20 10 -20 6 0 10 9 10 20 0 11 -4 20 -10 20 -5 0
-10 -9 -10 -20z"/>
<path d="M530 210 c0 -11 5 -20 10 -20 6 0 10 9 10 20 0 11 -4 20 -10 20 -5 0
-10 -9 -10 -20z"/>
</g>
</svg>
