<?xml version="1.0" standalone="no"?>
<!DOCTYPE svg PUBLIC "-//W3C//DTD SVG 20010904//EN"
 "http://www.w3.org/TR/2001/REC-SVG-20010904/DTD/svg10.dtd">
<svg version="1.0" xmlns="http://www.w3.org/2000/svg"
 width="64.000000pt" height="64.000000pt" viewBox="0 0 64.000000 64.000000"
 preserveAspectRatio="xMidYMid meet">

<g transform="translate(0.000000,64.000000) scale(0.100000,-0.100000)"
fill="#fff" stroke="none">
<path d="M286 594 c-9 -24 -9 -24 35 -24 33 0 40 3 35 16 -3 9 -6 18 -6 20 0
12 -59 2 -64 -12z"/>
<path d="M110 525 c-6 -8 -9 -23 -5 -35 7 -22 7 -22 36 6 15 15 26 31 23 36
-8 13 -40 9 -54 -7z"/>
<path d="M483 534 c-8 -4 -2 -19 18 -47 70 -101 58 -231 -30 -318 -88 -88
-217 -100 -318 -30 -40 29 -42 29 -48 10 -9 -29 13 -51 44 -44 16 3 41 -2 66
-15 21 -11 45 -20 51 -20 7 0 16 -9 19 -20 8 -26 61 -28 69 -2 7 21 114 63
142 56 25 -6 49 19 40 42 -9 23 36 133 57 140 25 8 23 61 -3 69 -11 3 -20 12
-20 19 0 6 -9 30 -20 51 -13 24 -18 49 -15 63 9 37 -17 60 -52 46z"/>
<path d="M235 503 c-158 -83 -153 -300 7 -368 131 -54 278 41 278 180 0 118
-86 205 -202 205 -29 -1 -66 -8 -83 -17z m166 -117 l-61 -62 28 -27 c15 -15
35 -27 43 -27 18 0 39 -20 39 -37 0 -11 -4 -11 -20 -1 -25 16 -38 3 -22 -22
10 -16 10 -20 -1 -20 -18 0 -37 21 -37 40 0 9 -9 25 -20 35 -11 10 -17 22 -14
27 8 13 -25 48 -40 42 -7 -3 -21 4 -31 16 -10 11 -26 20 -35 20 -19 0 -40 19
-40 37 0 11 4 11 20 1 25 -16 38 -3 22 22 -10 16 -10 20 1 20 18 0 37 -21 37
-40 0 -9 13 -28 28 -43 l28 -27 59 60 c32 32 63 56 68 53 5 -3 -19 -33 -52
-67z m-106 -124 c-6 -7 -35 18 -35 31 0 5 9 2 20 -8 11 -10 18 -20 15 -23z
m-30 -30 c-6 -7 -35 18 -35 31 0 5 9 2 20 -8 11 -10 18 -20 15 -23z m-40 -12
c10 -11 15 -23 12 -27 -8 -7 -47 25 -47 39 0 14 16 9 35 -12z"/>
<path d="M43 353 c-12 -4 -19 -63 -9 -63 2 0 11 -3 20 -6 13 -5 16 2 16 35 0
40 -3 44 -27 34z"/>
</g>
</svg>
